# xmcd CD database file
#
# Track frame offsets:
#	150
#	11493
#	28523
#	41890
#	52527
#	66339
#	78599
#	95672
#	107581
#	125188
#	141644
#	155935
#	169762
#	187043
#
# Disc length: 2739 seconds
#
# Revision: 0
# Processed by: cddbd v1.5.1PL0 Copyright (c) Steve Scherf et al.
# Submitted via: CDex 1.40Release
#
DISCID=ca0ab10e
DTITLE=Ari Eisinger - That Will Never Happen No More
DYEAR=2005
DGENRE=Blues
TTITLE0=One Dime Blues
TTITLE1=Frankie
TTITLE2=Piney Woods Money Mama
TTITLE3=Hard Pushing Papa
TTITLE4=Chump Man Blues
TTITLE5=Oozin' You Off My Mind
TTITLE6=When The Levee Breaks
TTITLE7=To Do This It Would Help To Know How
TTITLE8=Church Bells
TTITLE9=Rope Stretchin' Blues, pt 1
TTITLE10=That Will Never Happen No More
TTITLE11=Match Box Blues
TTITLE12=Guitar Crimes
TTITLE13=Jesus Gonna Make Up My Dying Bed
EXTD=YEAR: 2005 ID3G: 0
EXTT0=
EXTT1=
EXTT2=
EXTT3=
EXTT4=
EXTT5=
EXTT6=
EXTT7=
EXTT8=
EXTT9=
EXTT10=
EXTT11=
EXTT12=
EXTT13=
PLAYORDER=
